<svg width="500" height="500" viewBox="0 0 500 500" fill="none" xmlns="http://www.w3.org/2000/svg">
<path d="M71.3762 305V195.909H84.5865V250.028H85.8649L134.871 195.909H152.129L106.319 245.128L152.129 305H136.149L98.2228 254.29L84.5865 269.631V305H71.3762ZM256.146 250.455C256.146 261.96 254.069 271.903 249.914 280.284C245.759 288.665 240.06 295.128 232.815 299.673C225.571 304.219 217.297 306.491 207.993 306.491C198.689 306.491 190.415 304.219 183.17 299.673C175.926 295.128 170.227 288.665 166.072 280.284C161.917 271.903 159.839 261.96 159.839 250.455C159.839 238.949 161.917 229.006 166.072 220.625C170.227 212.244 175.926 205.781 183.17 201.236C190.415 196.69 198.689 194.418 207.993 194.418C217.297 194.418 225.571 196.69 232.815 201.236C240.06 205.781 245.759 212.244 249.914 220.625C254.069 229.006 256.146 238.949 256.146 250.455ZM243.362 250.455C243.362 241.009 241.782 233.036 238.621 226.538C235.496 220.039 231.253 215.121 225.891 211.783C220.564 208.445 214.598 206.776 207.993 206.776C201.388 206.776 195.404 208.445 190.042 211.783C184.715 215.121 180.472 220.039 177.311 226.538C174.186 233.036 172.624 241.009 172.624 250.455C172.624 259.901 174.186 267.873 177.311 274.371C180.472 280.87 184.715 285.788 190.042 289.126C195.404 292.464 201.388 294.134 207.993 294.134C214.598 294.134 220.564 292.464 225.891 289.126C231.253 285.788 235.496 280.87 238.621 274.371C241.782 267.873 243.362 259.901 243.362 250.455ZM278.359 305V195.909H343.771V207.628H291.569V244.489H338.87V256.207H291.569V305H278.359ZM366.396 305V195.909H432.234V207.628H379.606V244.489H428.825V256.207H379.606V293.281H433.086V305H366.396Z" fill="white"/>
<path d="M58.166 334.83H442.887V345.057H58.166V334.83Z" fill="white"/>
</svg>
